<svg xmlns="http://www.w3.org/2000/svg">
  <symbol viewBox="0 0 23 22" id="toggle-button">
    <path d="M22.9 0H0v4h22.9V0ZM22.9 9H0v4h22.9V9ZM22.9 18H0v4h22.9v-4Z" fill="#81B3D2"/>
  </symbol>
  <symbol viewBox="0 0 80 80" id="icon-home">
    <path fill-rule="evenodd" clip-rule="evenodd"
    d="M75.9 43.18 78 41.1l-9.94-9.84V4.4H54.2v13.12L40.45 4 3 41.2l2.1 2.08 7.84-7.76v37.6H9.02V76h64.16v-2.88h-5.12v-37.7l7.83 7.76ZM57.11 7.38h7.93v20.98l-7.93-7.85V7.38Zm7.93 65.64h-49.1V32.54l24.5-24.36 24.6 24.36v40.48Zm-31.93-4.48h16.06V44.77H33.12v23.77Zm13.05-2.88H36.03v-18h10.14v18ZM40.85 39.3a7.78 7.78 0 0 1-7.73-7.75 7.63 7.63 0 0 1 7.73-7.66 7.72 7.72 0 0 1 7.83 7.66 7.8 7.8 0 0 1-7.83 7.75Zm5.02-7.75a5.01 5.01 0 0 0-10.04 0 5.01 5.01 0 0 0 10.04 0ZM23.08 44.77h-3.01v3.88h3.01v-3.88Zm3.01 0h3.01v3.88h-3v-3.88Zm-3.01 5.97h-3.01v3.88h3.01v-3.88Zm3.01 0h3.01v3.88h-3v-3.88Zm29.12-5.97H52.2v3.88h3v-3.88Zm3.01 0h3.01v3.88h-3v-3.88Zm-3.01 5.97H52.2v3.88h3v-3.88Zm3.01 0h3.01v3.88h-3v-3.88Z"
    fill="#81B3D2"/>
  </symbol>
  <symbol viewBox="0 0 80 80" id="icon-eat">
    <path fill-rule="evenodd" clip-rule="evenodd"
  d="M72.53 36.37c.02-.82.06-1.94-.02-2.23C71.81 18.52 57.45 6 39.8 6S7.69 18.52 6.99 34.14v3H72.5l.02-.77ZM39.8 9c15.96 0 29.12 11.22 29.72 25.14H9.98C10.68 20.22 23.84 9 39.8 9ZM23.24 48.86l-5.38-4-5.49 4L6 44.16l1.8-2.4 4.58 3.3 5.49-4 5.38 4 5.49-4 5.49 4 5.48-4 5.39 4 5.48-4 5.49 4 5.48-4 5.49 4 4.59-3.3 1.7 2.4-6.3 4.7-5.48-4-5.48 4-5.49-4-5.48 4-5.39-4-5.48 4-5.49-4-5.49 4ZM6.3 52.06h67.4c2.4 0 4.29 2.01 4.29 4.21v3.5c0 2.41-2 4.31-4.29 4.31h-1v1A9.91 9.91 0 0 1 62.83 75H17.16a9.92 9.92 0 0 1-9.87-9.91v-1h-1c-2.4 0-4.29-1.9-4.29-4.21v-3.5c0-2.31 1.9-4.31 4.29-4.31ZM62.94 72a6.9 6.9 0 0 0 6.88-6.91v-1H10.18v1a6.9 6.9 0 0 0 6.88 6.9h45.88Zm10.77-10.92c.7 0 1.3-.6 1.3-1.3h.1v-3.4c0-.7-.6-1.3-1.3-1.3H6.3c-.7 0-1.3.6-1.3 1.2v3.5c0 .7.6 1.3 1.3 1.3h67.4ZM41.9 21.62a2 2 0 1 1-4 .01 2 2 0 0 1 4 0Zm-9.98-3a2 2 0 1 0 0-4 2 2 0 0 0 0 4Zm17.95-2a2 2 0 1 1-4 0 2 2 0 0 1 4 0Z"
  fill="#81B3D2"/>
  </symbol>
  <symbol viewBox="0 0 80 80" id="icon-present">
    <path d="M69.2 25.12H44.8c13.6-6.8 14.7-11.1 14.2-13.5-1.1-3.9-5.6-6.9-9.8-5.3-5.5 2.1-7 10.3-8.5 16.2-1.9-6-3.7-13.6-8-17.5-1.2-1.1-3-2.2-5.7-2-4 .4-9.7 5.3-7.3 10.8 2.2 5.3 9.5 8.7 14.4 11.4H11.8a2.8 2.8 0 0 0-2.8 2.8v11.2c0 1.6 1.3 2.8 2.8 2.8h.3V78h57V42.01h.1c1.6 0 2.8-1.3 2.8-2.8v-11.2c0-1.6-1.3-2.9-2.8-2.9ZM50.8 8.82c2.1-.3 4.9 1.3 5.2 3.2.4 2.7-3.3 5.2-5 6.3-2.5 1.7-4.9 2.6-7.2 4 .8-3.7 2.5-12.9 7-13.5Zm-22.6 9.8c-2.2-1.5-6.4-4.4-6.3-7.7.1-3.6 5.7-6.5 8.7-3.8 3.8 3.3 5.6 11 7 16.4-3.2-1.6-6.2-2.8-9.4-4.9ZM34.1 75H15V42.01h19.1v33Zm0-35.99H12v-10.9h22.1v10.9Zm10 36H37V28.1h7.1V75Zm22 0h-19V42h19.1v33h-.1ZM69 39H47.1V28.1H69V39Z"
  fill="#81B3D2"/>
  </symbol>
  <symbol viewBox="0 0 27 35" id="icon-academy">
    <path d="M13.6 0h-.1L0 1.4v24.7l13.5 8 13.4-8V1.4L13.6 0ZM25 12.1 13.5 5.3v-.1h-.1l-.1-.1v.1L1.9 12.1v-9l11.5-1.2L25 3.1v9ZM13.4 6.8l11.5 6.7-4.5 2.6-7.1-4.2v1.4l5.9 3.5-.9.5-5-3v1.4l3.8 2.3-.8.5-3-1.8v1.4l1.9 1.1-1.8 1.1L2 13.6l11.4-6.8ZM1.9 15.1l11.4 6.8v1l-7.9-4.7v1.4l8 4.8v1.1l-8-4.7v1.4l8 4.8 8.1-4.9v-5.2l3.4-2v10l-11.5 6.9L1.9 25v-9.9Z"
  fill="#000"/>
  </symbol>
  <symbol viewBox="0 0 18 18" id="icon-phone">
    <path
     d="M3.6 7.8c1.4 2.8 3.8 5.1 6.6 6.6l2.2-2.2c.3-.3.7-.4 1-.2 1.1.4 2.3.6 3.6.6.6 0 1 .4 1 1V17c0 .6-.4 1-1 1C7.6 18 0 10.4 0 1c0-.6.4-1 1-1h3.5c.6 0 1 .4 1 1 0 1.2.2 2.4.6 3.6.1.3 0 .7-.2 1L3.6 7.8Z"
     fill="#010101"/>
  </symbol>
  <symbol viewBox="0 0 18 18" id="icon-email">
  <path
   d="M9 11c-.3 0-.5-.1-1-.3L1 7v7c0 .5.5 1 1 1h14c.5 0 1-.5 1-1V7l-7 3.7c-.5.2-.7.3-1 .3Zm7-8H2c-.5 0-1 .5-1 1v.8L9 9l8-4.2V4c0-.5-.5-1-1-1Z"
   fill="#000"/>
  </symbol>
  <symbol viewBox="0 0 22 20" id="icon-like">
  <path
    d="m12.4 3.6-.6 2.9-.6 2.5h8.7v2.1L17 18H8V8l4.4-4.4ZM2 10v8-8ZM13.2 0 6.6 6.6c-.4.3-.6.8-.6 1.4v10c0 1.1.9 2 2 2h9c.8 0 1.5-.5 1.8-1.2l3-7.1c.1-.2.1-.5.1-.7V9h.1a2 2 0 0 0-2-2h-6.3l1-4.6v-.3c0-.4-.2-.8-.4-1.1l-1.1-1ZM4 8H0v12h4V8Z"
    fill="currentColor"/>
  </symbol>
  <symbol viewBox="0 0 48 55" id="play-button">
  <path d="m48 27.02-48 27v-54l48 27Z" fill="#fff" fill-opacity=".7"/>
  </symbol>
</svg>
